# Blender 3.3.1
# www.blender.org
mtllib crystal_cluster3.mtl
o Cylinder001
v 0.004787 0.008957 -0.011941
v 0.041112 0.008957 -0.011941
v 0.022949 0.008957 -0.043399
v -0.013376 0.008957 -0.043399
v -0.031538 0.008957 -0.011941
v -0.013376 0.008957 0.019518
v 0.022949 0.008957 0.019518
v 0.077437 0.008957 -0.011941
v 0.041112 0.008957 -0.074857
v -0.031538 0.008957 -0.074857
v -0.067863 0.008957 -0.011941
v -0.031538 0.008957 0.050976
v 0.041112 0.008957 0.050976
v 0.154144 0.410494 -0.011941
v 0.079465 0.373188 -0.141288
v -0.069892 0.410494 -0.141288
v -0.144571 0.398501 -0.011941
v -0.069892 0.410494 0.117407
v 0.079465 0.435111 0.117407
v 0.073825 0.523888 -0.011941
v 0.039306 0.523888 -0.071730
v -0.029732 0.523888 -0.071730
v -0.064252 0.523888 -0.011941
v -0.029732 0.523888 0.047848
v 0.039306 0.523888 0.047848
v 0.004787 0.629023 -0.011941
vn -0.0000 -1.0000 -0.0000
vn 0.9817 -0.1887 0.0236
vn 0.4899 -0.1997 -0.8486
vn 0.9771 -0.1871 0.1017
vn -0.4995 -0.1914 -0.8449
vn -0.5280 -0.1911 -0.8275
vn -0.9815 -0.1913 -0.0000
vn -0.4794 -0.1868 0.8575
vn -0.4394 -0.1862 0.8788
vn 0.4918 -0.1805 0.8518
vn 0.8124 0.5638 -0.1489
vn 0.4328 0.5006 -0.7497
vn 0.4269 0.5206 -0.7394
vn 0.8247 0.5633 -0.0505
vn -0.3655 0.5514 -0.7499
vn -0.4015 0.5512 -0.7314
vn -0.8344 0.5512 -0.0000
vn -0.8350 0.5502 -0.0000
vn -0.4833 0.5819 0.6541
vn -0.4384 0.5708 0.6943
vn 0.3844 0.6395 0.6658
vn 0.3987 0.6035 0.6905
vn -0.0000 1.0000 -0.0000
vt 0.500000 0.000000
vt 0.750000 0.000000
vt 0.916667 0.000000
vt -0.083333 0.000000
vt 0.083333 0.000000
vt 0.250000 0.000000
vt 0.416667 0.000000
vt 0.583333 0.000000
vt 0.750000 0.000000
vt 0.916667 0.000000
vt -0.083333 0.000000
vt 0.083333 0.000000
vt 0.250000 0.000000
vt 0.416667 0.000000
vt 0.583333 0.000000
vt 0.750000 1.000000
vt 0.916667 1.000000
vt -0.083333 1.000000
vt 0.083333 1.000000
vt 0.250000 1.000000
vt 0.416667 1.000000
vt 0.583333 1.000000
vt 0.750000 1.000000
vt 0.916667 1.000000
vt -0.083333 1.000000
vt 0.083333 1.000000
vt 0.250000 1.000000
vt 0.416667 1.000000
vt 0.583333 1.000000
vt 0.500000 1.000000
s 1
usemtl Material.001
f 1/1/1 3/3/1 2/2/1
f 1/1/1 4/5/1 3/4/1
f 1/1/1 5/6/1 4/5/1
f 1/1/1 6/7/1 5/6/1
f 1/1/1 7/8/1 6/7/1
f 1/1/1 2/2/1 7/8/1
f 2/2/1 3/3/1 9/10/1 8/9/1
f 3/4/1 4/5/1 10/12/1 9/11/1
f 4/5/1 5/6/1 11/13/1 10/12/1
f 5/6/1 6/7/1 12/14/1 11/13/1
f 6/7/1 7/8/1 13/15/1 12/14/1
f 7/8/1 2/2/1 8/9/1 13/15/1
f 8/9/2 9/10/3 15/17/3 14/16/4
f 9/11/3 10/12/5 16/19/6 15/18/3
f 10/12/5 11/13/7 17/20/7 16/19/6
f 11/13/7 12/14/8 18/21/9 17/20/7
f 12/14/8 13/15/10 19/22/10 18/21/9
f 13/15/10 8/9/2 14/16/4 19/22/10
f 14/16/11 15/17/12 21/24/13 20/23/14
f 15/18/12 16/19/15 22/26/16 21/25/13
f 16/19/15 17/20/17 23/27/18 22/26/16
f 17/20/17 18/21/19 24/28/20 23/27/18
f 18/21/19 19/22/21 25/29/22 24/28/20
f 19/22/21 14/16/11 20/23/14 25/29/22
f 26/30/23 20/23/14 21/24/13
f 26/30/23 21/25/13 22/26/16
f 26/30/23 22/26/16 23/27/18
f 26/30/23 23/27/18 24/28/20
f 26/30/23 24/28/20 25/29/22
f 26/30/23 25/29/22 20/23/14
